<svg height="354.259792" viewBox="0 0 200.00001 250.77567" width="282.278718" xmlns="http://www.w3.org/2000/svg"><g transform="matrix(2.449725 0 0 2.449725 -606.92065 -1290.7406)"><path d="m304.66707 536.34345c1.0625 2.73125 2.23625 5.46375 3.2625 8.23125 3.08-1.9775 6.23375-3.95375 10.23-3.66625.73375.0712 1.43.575 1.75875 1.2225.5875 2.44375-.695 4.52875-1.75875 6.47-1.87 2.91125-3.74 5.78625-5.17 8.8425 1.98 4.025 4.36375 8.555 8.8725 10.7475 1.94375.93375 3.92375 1.8325 5.75625 3.01875.9175.79125 1.35625 1.83375 1.06375 2.98375-1.46625 3.99-5.86625 6.72125-9.38625 8.69875-2.01625 1.07875-4.10625 2.0125-6.19625 2.98375 3.04375.5025 6.05 1.0775 9.02 1.68875-3.04375-.575-6.34375-1.15-9.57-1.51-.99.39625-1.98.79125-2.96875 1.15125.5125.8625 1.54.79 2.1625 1.40125-.0738 1.00625-.95375 1.7975-1.79625 2.22875.47625.61125 1.24625 1.2225 1.9425 1.68875-1.0625.57625-2.82375.61125-3.96.14375-.29375.32375-.4025.72-.80625 1.00625-2.53 0-4.5825 1.2225-6.59875 2.445-.77125 4.4575-2.20125 8.6625-3.8875 12.76-.22.39625-1.20875.2525-.87875.97125.76875 2.7675 2.455 5.10375 4.6925 7.26125-.0362.17875-.22.2875-.29375.43.77.97125 1.54 1.94125 2.53 2.80375 7.07625-.575 13.3825-3.63 20.78875-2.73125 2.09.32375 3.95875 1.18625 5.49875 2.73125.33.32375.51375.755.36625 1.2225-1.09875 1.0425-2.8225.8275-4.3625.97125-7.4425-.18-15.215-.54-22.475-.21625-.21875-.0362-.47625-.0713-.65875-.18-1.06375-1.22125-2.2375-2.48-3.4475-3.59375-.58625.035-1.13625.1075-1.65-.10875-2.52875-3.9175-6.6725-7.08125-11.40125-7.29625-2.49375-.1075-5.24375-.0725-7.44375.97.51375.79125 1.32 1.36625 2.12625 1.76125.0375.36-.1825.6475-.47625.8275 1.50375 1.4375 3.19 3.01875 4.54625 4.52875.18375.25125.40375.61125.18375.935-.58625.64625-1.5775.395-2.3825.575-8.21375.1075-16.53625 1.0425-24.85875.53875-.33-.0362-.77-.18-.88-.575-.44-.1075-1.02625-.14375-1.21-.6475.25625-1.545 1.98-2.1925 3.15375-2.875 3.95875-2.04875 8.68875-.32375 12.795.18 3.22625.6825 6.52625 1.365 10.00875 1.11375-1.1725-1.365-2.67625-2.3725-3.995-3.48625-.73375-.0362-1.50375-.0362-2.1275-.32375-.4025-.6825-.6225-1.4375-1.0625-2.085-7.18625 3.09125-15.65625 3.1275-22.54875 6.9375-.88.575-2.01625 1.2225-2.38375 2.265.22125.89875 1.28375 1.15 2.05375 1.365 5.72 1.15125 11.65875.72 17.415 1.54625 4.84.32375 9.6425.89875 14.00625 2.48.7325.36 1.68625.755 1.9425 1.6175-.0738.18-.0362.4675-.22.4675-.44-1.83375-2.56625-2.0125-4.06875-2.51625-8.17625-1.905-17.04875-1.7975-25.81125-2.15625-2.16375-.2525-4.36375-.39625-6.08625-1.72625-.44-.61-.29375-1.47375.0725-2.08375 2.38375-2.66 5.75625-3.63125 8.91-4.745 5.60875-1.43875 11.365-2.51625 16.60875-4.88875.29375-.79125 1.1725-1.29375 1.8325-1.7975 1.50375-1.0775 3.22625-1.76125 4.54625-3.19875-.25625-.21625-.69625-.1075-1.02625-.0725.77-2.4075 3.2625-3.99 4.65625-6.14625-.44-.14375-1.06375-.0725-1.54-.0362-.44 2.1925-2.49375 4.20625-4.73 4.67375.84375-1.15125 1.50375-2.58875.95375-4.09875-.58625.10875-1.13625.2525-1.72375.39625-.1825-.32375-.25625-.68375-.33-1.0425-1.20875-.21625-2.97.18-3.84875-.8625-.0362-.4675.1825-.79125.55-1.07875 1.13625-.64625 2.34625-1.36625 3.40875-2.12125.55125-1.22125.8075-2.5875.77125-4.025 0-.21625.21875-.39625.47625-.36 1.46625.21625 2.75 1.07875 3.77625 2.22875 1.24625-.32375 2.56625-.575 3.77625-.89875-3.15375-.2875-6.19625-.89875-8.6525-2.80375-3.96 2.91125-7.81 6.61375-11 10.31625 3.15375-3.8825 6.82-7.5125 10.7425-10.53125-.65875-.71875-1.09875-1.69-.7325-2.69625-1.57625.32375-3.1525.935-4.6925 1.47375-3.19 1.2575-6.34375 2.5875-9.3125 4.34875 4.325-2.8025 9.3125-4.74375 14.29875-6.325-4.2175-1.51-8.39625-3.73875-11.40375-7.585-4.6925-5.75125-4.105-14.27-2.3825-21.17125 4.0325-11.8625 13.23625-24.37125 25.665-29.655 3.0425-1.2575 7.5525-1.94125 10.44875.18 3.08 1.9775 5.09625 5.0675 6.52625 8.0875"/><path d="m303.45744 535.1212c4.6925 9.4175 6.37875 20.02125 12.64875 28.7925 2.78625 4.0975 7.2225 5.14 10.9625 7.47625.6225.4675 1.02625 1.11375 1.17375 1.7975-.18375 2.515-2.20125 4.34875-4.14375 6.0025-3.7025 2.91125-7.8825 4.8525-12.09875 6.5775-.77-.18-1.65-.18-2.45625-.35875.2925-.97125.87875-1.7975 1.32-2.7325.11-.32375-.1475-.575-.40375-.6825-1.68625-.0363-3.04375.8625-4.47375 1.51-.8425.3225-.5125 1.58125-1.57625 1.40125-.87875-.0362-1.68625-.14375-2.52875-.215 1.09875-1.25875 2.01625-2.58875 2.85875-3.955.0375-.035.11-.035.18375-.0713 3.9225-.36 8.03-.36 11.915-.6475-3.95875-.0713-7.91875.10875-11.7675.36.0363-.50375.4025-.97125.54875-1.47375.44-1.15125.77-2.3725.9175-3.63125 2.19875.28875 4.0325-1.0775 5.27875-2.83875 2.49375-3.66625 2.01625-9.3825-.25625-12.97625-.51375-.68375-1.1-1.36625-1.87-1.6175-1.32-.2875-2.27375.71875-3.0425 1.6175-1.61375 2.1925-2.31125 4.78-3.85 7.00875-4.80375-.0713-9.71625-.79-14.51875-.035-3.04375.46625-6.05 1.04125-8.87375 2.0125-.0362.14375.0375.25125.1475.32375 1.2825-.10875 2.6025-.0725 3.88625-.145-5.31625 1.83375-10.23 5.465-13.9325 10.065 0 .0725.11.14375.18375.21625h.11c2.56625-2.40875 5.49875-3.99 8.57875-5.17625-1.35625 1.545-2.78625 3.1275-3.63 4.92375.11.0725.18375.21625.33125.14375.91625-.97 1.87-1.86875 2.85875-2.66-.22 2.58875-.25625 4.925-.2925 7.585-.33.8625-.99 1.51-1.5775 2.265-6.1225-1.69-12.72125-6.83-14.18875-13.22875-1.43-6.5775-.25625-13.335 2.27375-19.08625 4.50875-10.5675 14.2625-22.21375 25.81125-25.84375 3.77625-1.295 7.8825-.0363 10.4125 2.9475 1.32 1.33 2.23625 2.8025 3.08 4.34875" fill="#fdfd41"/><path d="m319.36932 542.13057c.69625 2.1925-.58625 4.0975-1.46625 5.93125-1.87 2.83875-3.63 5.75125-5.20625 8.69875-1.90625-3.66625-3.11625-7.72875-4.54625-11.64625 2.6025-2.01375 5.535-3.4875 8.90875-3.84625.91625-.0362 1.76.14375 2.31.8625" fill="#fdfd41"/><path d="m311.30344 560.10295c-.3675-.18-1.06375-.6475-1.7225-.395-1.5775.755-2.4575 2.4075-3.3375 3.7375-.8425 1.72625-1.79625 3.4875-1.90625 5.3925 0 .35875.14625.71875.44.89875.44.17875.80625-.0725 1.1725-.2525-.33.8275-1.0625 2.01375-.6225 3.16375.2925.25125.6225.43125 1.0625.32375-.4025.71875-.33 1.68875-.4025 2.48-.3675 1.725-.84375 3.45-1.72375 4.96-2.41875.21625-4.87625.36-7.2225.71875-.0362-.43125.22-.8625.44-1.29375 1.13625-.53875 2.31-1.07875 3.22625-2.15625-1.3925.89875-2.86 1.76125-4.54625 2.085-2.2.3225-4.73.43125-5.94 2.5875.3675.18.73375-.89875.99125-.1075-.5875.3225-1.2475.395-1.76.79-.0738.14375.0725.21625.14625.2525.58625-.2875 1.1725-.50375 1.8325-.6475.29375.50375.29375 1.15.33 1.76125-.80625-.0362-1.54.0713-2.30875.1075-.22.0725-.11125.2525.0362.2875.7325-.0713 1.50375 0 2.2725-.035-.14625 2.04875-1.2825 4.24125-3.40875 4.92375-1.87.50375-3.92375.18-5.39-1.07875-.51375-.5025-.88-1.0425-1.13625-1.6525-.0738-.18.1825-.21625.0738-.39625-.33125.14375-.29375-.6825-.55125-.14375 0 .0725 0 .18-.0362.2525-1.6125.6825-3.1525 1.58125-4.5825 2.66-.62375-.50375-1.02625-1.295-.6975-2.12125.0738-.43125.40375-.50375.77-.6475 1.43-.3225 2.86-.75375 4.32625-1.00625 1.0275 1.29375 2.64 2.085 4.4 1.76125 1.46625-.43125 2.71375-1.905 2.97-3.37875.11-.61125-.11-1.18625-.66-1.51-1.35625-.43125-3.1525-.2875-4.43625.21625.14625-1.8325-.11-3.775-1.13625-5.2475-.29375-.2525-.62375-.39625-1.0275-.39625-.0362.10875.11.18.18375.25125-1.13625 1.54625-1.21 3.99125-.55 5.7875.11.32375.36625.575.55.8625-.36625.36-.51375.79125-.44 1.295-1.46625.35875-2.97.64625-4.4 1.0775.8075-1.0775 1.83375-2.085 1.72375-3.5225 0-.82625 0-1.33-.0362-2.12-.18375-.0725-.0375-.18 0-.2525 0-1.68875.11-3.3425.47625-4.88875 4.0325-3.19875 8.35875-5.75 13.16125-7.26-.0725.1075-.10875.53875.11.2875.2575-.25125.6975-.43125.99125-.18.43875.2875.6225.71875.91625 1.115-.0362-.57625-.3675-1.18625-.88-1.54625 2.82375-.8625 6.05-1.2225 9.23875-.8625 0 .25125-.32875.53875-.47625.82625.84375-.17875 1.46625-1.11375 1.98-1.8325 1.61375-2.51625 2.09-5.715 4.8025-7.62.58625-.32375 1.21.035 1.68625.3225.3675.43125.84375.8625 1.0275 1.36625" fill="#d48d00"/><path d="m312.03632 561.75632c1.35625 3.45125 1.28375 8.16-1.1725 11.07125-1.13625 1.18625-2.53 2.265-4.18 1.8325-.33-.6825.22-1.365.5125-1.97625.40375-.53875 1.06375-1.00625 1.43-1.54625-.0362-.14375-.21875-.25125-.36625-.35875-.77.4675-1.2825 1.7975-2.38375 1.6525-.2925-.61 0-1.4375.29375-2.04875.40375-.97 1.1-1.86875 1.79625-2.73125-.33-.82625-.88.14375-1.24625.32375-.55.43125-.91625 1.2225-1.65 1.29375-.2925-1.94125.77-3.66625 1.54-5.35625.80625-1.365 1.76-2.9825 3.3-3.77375.91625.0362 1.65.935 2.12625 1.6175" fill="#fee9d5"/><path d="m293.66807 572.53995c.47625 1.4375.55 3.055.44 4.6725.0363.0725.14625.0362.22 0 .80625-.64625 1.68625-1.15 2.64-1.545-1.76 1.11375-3.63 2.48-4.8775 4.16875-.11-.395-.69625-.1075-.98875-.25125-1.94375-.89875-2.09-3.235-1.94375-5.17625.3675-1.40125.84375-3.01875 2.38375-3.66625-.0375-.25125-.33-.2875-.44-.4675 1.1725.21625 2.12625 1.2225 2.56625 2.265"/><path d="m293.74132 575.23583c-.22-.14375-.51375-.32375-.73375-.14375-.77.4675-.55 1.47375-.55 2.265.0738.35875.18375.6825.51375.93375-.55.39625-.77 1.43875-1.65 1.0425-1.46625-.575-1.79625-2.22875-1.8325-3.66625 0-1.905.54875-3.99 2.45625-4.70875 1.46625.935 1.7225 2.62375 1.79625 4.2775" fill="#fff"/><path d="m281.38557 575.05582c-.33-.0713-.62375-.43125-.95375-.18-.91625.935-.84375 2.265-.9525 3.4875-.11-1.36625-.2575-3.05625.99-3.8825.4025-.0362.7325.25125.91625.575"/><path d="m282.26544 578.03945c.4025.8625.66 1.76125.73375 2.7675-.18375-.14375-.40375-.25125-.66-.14375-.58625.575-.47625 1.65375-.1475 2.33625 0 .0725.11.14375.0737.2525-.18375.0713-.36625.25125-.5125.35875-1.17375-1.29375-.99125-3.235-.66125-4.8525.11-.35875.6975-2.0125 1.17375-.71875" fill="#fff"/><path d="m296.52744 581.16682c-1.65.32375-3.33625.575-4.95 1.00625-.0362-.215-.2925-.32375-.36625-.5025 1.5775-1.36625 3.7025-1.33125 5.72-1.69-.14625.395-.29375.79125-.40375 1.18625" fill="#a64338"/><path d="m288.64482 580.66345c-1.43.14375-2.78625.4675-3.95875 1.2225.98875-1.07875 2.4925-1.4025 3.95875-1.2225"/><path d="m304.04369 580.7352c-.77 1.4025-1.76 2.66-2.86 3.8825-1.46625.035-2.93375-.14375-4.43625-.14375-.11-.97125-.0362-1.9775.11-2.9125 2.34625-.395 4.76625-.61 7.18625-.82625" fill="#d48d00"/><path d="m296.30769 584.32982c-.0362.0712-.14625.0712-.18375.14375-1.2825-.1075-2.6025-.0362-3.9225-.0725 0-.64625-.11-1.2575-.40375-1.8325 1.43-.53875 3.08-.68375 4.62-.97-.11.8975-.14625 1.79625-.11 2.73125" fill="#a64338"/><path d="m310.42307 582.42482c-.22.89875-.77 1.6175-1.13625 2.40875-.29375.71875-.58625 1.6175-.2575 2.33625.62375.79 1.50375 1.15 2.3475 1.50875-.18375.79125-.88 1.61875-1.65 1.87-.55-.43125-.88-.97125-1.1-1.54625.25625.2875.47625.8275.95375.68375-.29375-.2525-.51375-.54-.55125-.8625.18375-.18.4775-.18.55125-.4675-.51375.14375-1.1375.35875-1.7975.3225-.29375-.3225-.18375-.82625-.25625-1.2575.18375-.0713.44-.14375.55-.32375-1.6125-.32375-2.56625 1.33-3.66625 2.1575-.2575-.0725-.1475-.50375-.11-.68375.29375-.755.73375-1.6175 1.54-2.0125.88-.0362 1.75875-.14375 2.3825-.755-.55.1075-1.13625.43125-1.8325.395.25625-.8625 1.13625-1.65375 1.90625-2.12-1.02625.1075-1.90625 1.18625-2.42 2.04875-.22.18-.47625.215-.7325.36.0362-1.07875.2925-2.22875 1.2825-2.805 1.24625-.53875 2.42-1.29375 3.9225-1.32875 0 .035.0375.0713.0738.0713" fill="#d48d00"/><path d="m295.64819 584.79707c-.66.79125-1.1 1.65375-1.43 2.5525-1.46625.395-1.43 2.04875-1.61375 3.27-.11.50375 0 1.07875-.0725 1.54625-.0738.0362-.1475.0713-.22.0713-.2575-1.29375-.8075-2.48-1.76125-3.45.95375-1.18625 1.5775-2.51625 1.65125-4.02625 1.13625.0362 2.30875-.035 3.44625.0362" fill="#a64338"/><path d="m300.74419 585.01282c-.58625.755-1.35625 1.4375-2.12625 1.94125.0725-.61125.36625-1.18625.5125-1.72625-1.5025 1.47375-1.32 3.55875-1.86875 5.42875-1.2475 1.50875-2.97 2.4075-4.73 2.91125-.95375.215-.5875-.8275-.99-1.2225-.36625-.4675-.88-1.07875-1.50375-1.07875.25625.21625.44.4675.5875.68375-4.73.61125-9.86375.35875-13.6025-2.265v-.14375c1.43-.93375 2.86-1.8325 4.3625-2.55125.84375 2.15625 3.15375 3.3425 5.4625 3.30625 1.28375-.0362 2.38375-.53875 3.37375-1.2575.91625.89875 1.43 2.04875 1.68625 3.27.0738.18-.44.39625 0 .43125 1.87-.53875 4.25375-1.725 4.73-3.81.18375-1.29375.0725-2.73125.11-4.0975 1.32-.0362 2.64.14375 3.99625.18" fill="#d48d00"/><path d="m296.27107 584.83295c-.0362 2.445.73375 5.0325-1.87 6.39875-.44.2875-.91625.53875-1.3925.71875 0-1.4025-.0738-3.1275.99-4.17h.11c-.1475.6825-.33 1.29375-.1475 1.9775.51375-1.72625.80625-3.63125 2.31-4.925" fill="#f3a188"/><path d="m303.64069 585.19245c-1.72375.89875-3.2625 2.15625-4.95 3.09125-.55.25125-.33-.36-.2925-.53875 1.13625-.71875 2.23625-1.65375 3.1525-2.69625.69625.0725 1.3925.1075 2.09.14375" fill="#fff"/><path d="m304.88744 585.3362c-.2575.8625 0 1.905-.77 2.5875-.22.39625-.29375.89875-.2575 1.36625.11.2875.4775.32375.69625.2875.99125-.395 1.43-1.79625 2.5675-2.0125.11.43125-.11 1.0425.36625 1.33.14625.18.44.18.6975.18.6225 1.29375 1.79625 2.44375 2.96875 3.37875-1.5025.4675-3.3725.18-4.43625-1.07875.3675-.0725.77.0362 1.06375-.18-1.1-.14375-2.23625-.32375-3.04375-1.0425.55-.1075 1.13625-.14375 1.6875-.2875-4.07-.14375-7.48 1.47375-10.7425 3.27125-.0738-.1075-.0362-.25125-.0362-.35875.805-.50375 1.68625-1.18625 2.235-1.9775 1.72375-1.25875 3.63-2.12125 5.5-3.01875-1.9425.3225-3.59375 1.50875-5.31625 2.44375 0-.43125.1825-.79125.1825-1.2225 2.1275-1.15 4.07125-2.875 6.30625-3.77375.0738.1075.2575 0 .33125.1075" fill="#e20040"/><path d="m311.37682 585.91145c-.66.32375-1.35625.6825-2.09.82625 0-.32375-.0362-.71875.18375-1.0425.58625.14375 1.32.10875 1.90625.21625" fill="#fff"/><path d="m306.24369 591.4467c.0738.575 0 1.2225.22 1.76125-2.16375.2525-4.0325 1.15-5.86625 2.1925.11-1.33.25625-2.73125-.11-3.99-.0362.0362-.0725.0362-.11.0725-.0725 6.25375-2.09 11.75375-4.21625 17.18125-3.3 1.7975-8.13875 1.905-11.21875-.43125-1.61375-1.11375-3.26375-2.26375-5.17-2.69625 1.54-2.65875 4.32625-4.74375 5.93875-7.40375.3675-.6475.77125-1.25875 1.0275-1.94125 1.76-.6825 3.62875-1.115 5.5725-1.36625.2575.43125.84375.4675 1.3575.36.44-.43125 1.13625.18 1.64875-.21625.8075-.2875 1.1-1.11375 1.21-1.8325 2.31-1.4025 4.91375-2.33625 7.6625-2.9125.5875.61125 1.43.755 2.05375 1.2225" fill="#fff"/><path d="m281.34894 594.5382c-.73375-.71875-1.54-1.4375-2.45625-1.58125.80625.575 1.8325 1.11375 2.23625 2.085-.62375-.4675-1.68625-.935-2.67625-.6475 1.35625.1075 2.7125.79125 3.3725 2.04875.11.2875.1475.61125.1475.97-.8075.0362-1.2475-1.00625-1.90625-1.365-.1475-.14375-.77125-.10875-.44125-.4675-.8425.0712-1.42875 1.0425-1.90625 1.68875-.0738.32375-.2925.68375-.58625.8625-.40375 0-.73375-.17875-1.02625-.43125-.0738.0725-.0375.2525.0725.28875-.33.25125-.8425.53875-.80625.97.44-.2875.9525-.89875 1.46625-.53875.73375-.21625.29375.61.40375.93375-.0362 0-.0362.0362-.0738.0725-1.46625.0712-3.00625.0712-4.29-.39625-.14625-.1075-.14625-.35875-.0725-.5025.91625-.935 2.12625-1.33 3.1525-2.085-.43875.79125.47625.0363.55-.21625.8075-1.29375.99-2.83875.99-4.4925.40375-.18.77.14375 1.17375.21625.98875.64625 2.52875 1.2575 2.67625 2.5875" fill="#d48d00"/><path d="m291.24832 593.2082c-1.50375.395-3.1525.43125-4.5825 1.0425 1.54-.18 3.07875-.53875 4.65625-.6825.14625.43125.91625.25125.76875.8625-4.105.82625-8.24875 1.76125-11.32875 4.8525.0362.035.0362.035.0362.0713.40375-.18.73375-.43125 1.06375-.61125-.11 2.1925-1.5025 4.42125-3.7025 5.2125.9525-1.33.91625-3.45125.0725-4.81625-.18375-.32375-.55-.575-.58625-.935.44-.71875.84375-1.545 1.57625-2.085 1.1375.0725 1.65 1.94125 2.86 1.6175.44-.18.33-.79.22-1.15-.2925-.8625-.44-1.7975-.73375-2.62375 2.16375-.61125 4.32625-1.15 6.71-1.2225.91625-.0362 1.79625-.1075 2.64-.25125.14625.215.29375.43125.33.71875" fill="#e20040"/><path d="m295.24407 593.02857c.0375.36.0738.71875.29375 1.00625.25625-.18.0738-.61125.44-.64625 0 .28625-.11.64625-.2925.8975-.2575.2875-.625.43125-.95375.4675-.40375-.0362-.8075-.1075-.95375-.5025-.0738-.10875 0-.2875-.11-.39625-.51375.36.4775 1.00625-.36625 1.0425-.33.0725-.66-.0713-.73375-.395-.0362-.1075-.11-.25125-.14625-.395.99-.14375 1.90625-.6475 2.8225-1.07875" fill="#e20040"/><path d="m286.48207 596.26357c-.6975 1.11375-1.50375 2.15625-2.42 3.1625-.58625-.035-1.21-.035-1.83375-.035.0375-.32375.11-.6475.0738-1.00625 1.28375-.97125 2.71375-1.5825 4.18-2.12125" fill="#fff"/><path d="m291.06519 610.49758c1.3925-.0713 2.8225-.2875 4.10625-.79.66 2.62375 2.2725 4.96 4.21625 7.1525-.91625 0-1.90625.18-2.31 1.07875.1475.3225.66-.4675.84375.17875-1.21125.36-1.3575-1.18625-2.05375-1.725-3.0425-3.63-7.07625-5.96625-11.98875-5.75125-2.49375-.0713-4.87625.2875-6.8925 1.36625-.11.14375-.2575.215-.29375.36.91625-.4675 1.1.82625 1.68625 1.0775-1.1725-.1075-2.3825-.0362-3.37375.43125-.25625-1.00625-1.53875-1.97625-.6225-3.055 1.9425-1.83375 4.32625-2.5525 6.19625-4.49375 3.4825 1.43875 6.30625 4.60125 10.48625 4.17" fill="#fff"/><g fill="#d48d00"><path d="m273.61282 612.18707c-7.25875 3.3075-15.9125 3.27125-22.87875 7.225-.91625.61125-2.45625 1.47375-2.2725 2.73125.8425 1.2225 2.31 1.18625 3.52 1.5825 3.66625.64625 7.515.43125 11.32875.8625-4.54625-.43125-9.60625.215-13.8225-1.2225-.5125-.18-1.02625-.5025-1.32-.935-.33-2.08375 2.05375-3.01875 3.44625-3.88125 6.78375-3.4875 14.9225-3.73875 21.85125-6.90125.0375.17875.0738.35875.1475.53875"/><path d="m277.86569 613.94857c2.01625 1.725 4.25375 3.77375 5.94 5.7875.0725.3225-.29375.25125-.44.395-8.25.215-16.4625 1.00625-24.455.82625-.73375-.1075-1.6125.0725-2.2-.35875-.0362-.61125.62375-1.0075 1.06375-1.36625 1.64875-.97 3.4825-1.58125 5.5725-1.4375v-.0362c-2.71375-.53875-5.39.2875-7.1125 2.33625-.0738.14375-.36625.0725-.51375.0362-.1825-.0362-.33-.25125-.22-.43125 1.3575-1.6175 3.37375-2.48 5.39-2.9475 1.65-.18 3.3725-.0362 4.95.215 5.20625.61125 9.89875 2.3375 15.47125 2.05.18375.1075.33125.3225.55.2875-.14625-1.15125-1.5025-2.01375-2.3825-2.87625-.95375-.79125-1.94375-1.545-2.8975-2.40875.44125-.035.84375-.17875 1.28375-.0713"/><path d="m299.38744 617.3632c1.0275 1.33 2.2 2.875 3.62875 3.77375.1475-.1075-.10875-.25125.0738-.3225 6.67375-.68375 12.65-3.34375 19.725-2.80375 1.3575.215 2.71375.46625 3.85 1.185-1.57625-.3225-3.63-.575-5.2425.0362 2.23625-.18 4.65625 0 6.6.97125.33.215.69625.53875.8425.8625.11.4675-.47625.5025-.69625.64625-2.2.50375-4.73.39625-7.04.2875-6.41625-.395-12.53875-.14375-18.99125-.215-1.28375-1.47375-2.53-2.84-3.8875-4.24125.33125-.10875.6975-.21625 1.1375-.18"/></g></g></svg>